<?xml version="1.0" encoding="utf-8"?>
<!-- Generator: Adobe Illustrator 19.2.1, SVG Export Plug-In . SVG Version: 6.00 Build 0)  -->
<svg version="1.1" id="Layer_1" xmlns="http://www.w3.org/2000/svg" xmlns:xlink="http://www.w3.org/1999/xlink" x="0px" y="0px"
	 viewBox="0 0 50 50" style="enable-background:new 0 0 50 50;" xml:space="preserve">
<style type="text/css">
	.st0{fill:#333333;}
</style>
<g>
	<path class="st0" d="M16,30.3c1.9,0,3.4-1.5,3.4-3.4c0-1.9-1.5-3.4-3.4-3.4c-1.9,0-3.4,1.5-3.4,3.4S14.1,30.3,16,30.3z M16,25.1
		c1,0,1.7,0.8,1.7,1.7s-0.8,1.7-1.7,1.7c-1,0-1.7-0.8-1.7-1.7S15,25.1,16,25.1z"/>
	<path class="st0" d="M23,30.4c-1.9,0-3.4,1.5-3.4,3.4s1.5,3.4,3.4,3.4c1.9,0,3.4-1.5,3.4-3.4S24.9,30.4,23,30.4z M23,35.6
		c-1,0-1.7-0.8-1.7-1.7s0.8-1.7,1.7-1.7c1,0,1.7,0.8,1.7,1.7C24.8,34.8,24,35.6,23,35.6z"/>
	<path class="st0" d="M25.4,24.4c-0.3-0.3-0.9-0.3-1.2,0L13.5,35.1c-0.3,0.3-0.3,0.9,0,1.2c0.2,0.2,0.4,0.2,0.6,0.2
		c0.2,0,0.4-0.1,0.6-0.2l10.7-10.7C25.8,25.3,25.8,24.7,25.4,24.4z"/>
	<path class="st0" d="M50,9.1c0-3.7-2.2-7.9-7-8.4c-4.6-0.5-7.9,1.6-9.7,6.3c-0.1,0.3-0.2,0.6-0.3,0.9h-9c-0.3,0-0.7,0.1-0.9,0.4
		L0.4,30.8c-0.5,0.5-0.5,1.3,0,1.8L16.7,49c0.2,0.2,0.6,0.4,0.9,0.4c0.3,0,0.6-0.1,0.9-0.4l22.7-22.6c0.2-0.2,0.4-0.6,0.4-0.9v-6.7
		C44.4,17.7,50,15.1,50,9.1z M39.1,25.1L39.1,25.1L17.6,46.3L3,31.7l21.4-21.4h7.7c-0.3,0.9-0.4,1.7-0.6,2.5
		c-0.1,0.7-0.3,1.4-0.5,2.2c-0.1,0-0.3,0-0.4,0c-1,0-2,0.4-2.7,1.1c-0.7,0.7-1.1,1.7-1.1,2.7s0.4,2,1.1,2.7c0.7,0.7,1.7,1.1,2.7,1.1
		s2-0.4,2.7-1.1h0c0.7-0.7,1.1-1.7,1.1-2.7c0-1-0.4-1.9-1.1-2.6c0.3-1.1,0.5-2,0.6-2.8c0.2-1,0.4-1.8,0.7-3h4c0.3,0,0.4,0.1,0.4,0.4
		V25.1z M32.7,18.8c0,0.6-0.2,1.1-0.6,1.5c-0.4,0.4-0.9,0.6-1.5,0.6c-0.6,0-1.1-0.2-1.5-0.6c-0.4-0.4-0.6-0.9-0.6-1.5
		s0.2-1.1,0.6-1.5c0.4-0.4,0.9-0.6,1.4-0.6c-0.1,0.3-0.2,0.6-0.3,1c-0.2,0.7,0.1,1.4,0.8,1.6c0.1,0,0.3,0.1,0.4,0.1
		c0.5,0,1-0.3,1.2-0.9c0,0,0,0,0-0.1C32.7,18.5,32.7,18.7,32.7,18.8z M41.6,16.1v-5.3c0,0,0-0.1,0-0.1c-0.2-1.5-1.3-2.6-2.8-2.8
		c0,0-0.1,0-0.1,0h-3c1.4-3.5,3.7-5,7.1-4.6c3.8,0.4,4.8,4,4.8,5.9C47.5,12.1,45.6,14.3,41.6,16.1z"/>
</g>
</svg>
