<?xml version="1.0" encoding="utf-8"?>
<!-- Generator: Adobe Illustrator 19.2.1, SVG Export Plug-In . SVG Version: 6.00 Build 0)  -->
<svg version="1.1" id="Layer_1" xmlns="http://www.w3.org/2000/svg" xmlns:xlink="http://www.w3.org/1999/xlink" x="0px" y="0px"
	 viewBox="0 0 512 512" style="enable-background:new 0 0 512 512;" xml:space="preserve">
<style type="text/css">
	.st0{fill:#333333;}
</style>
<g>
	<path class="st0" d="M509.5,294.4l-59.4-67.8c-1.9-2.2-4.7-3.5-7.7-3.5H393v-41.9c0-5.6-4.6-10.2-10.2-10.2H254.7
		c-3.4-42.4-39-75.9-82.3-75.9c-45.6,0-82.6,37.1-82.6,82.6c0,42,31.5,76.8,72.2,81.9v88h-59c-5.6,0-10.2,4.6-10.2,10.2
		s4.6,10.2,10.2,10.2h59v10.4c0,5.6,4.6,10.2,10.2,10.2h21.3c4.5,16.3,19.5,28.4,37.2,28.4c17.7,0,32.7-12,37.2-28.4h136.1
		c4.5,16.3,19.5,28.4,37.2,28.4s32.7-12,37.2-28.4h23.5c5.6,0,10.2-4.6,10.2-10.2v-77.3C512,298.6,511.1,296.2,509.5,294.4z
		 M110.2,177.7c0-34.3,27.9-62.2,62.2-62.2c34.3,0,62.2,27.9,62.2,62.2c0,34.3-27.9,62.2-62.2,62.2
		C138.1,239.9,110.2,212,110.2,177.7z M230.6,396.5c-10,0-18.2-8.2-18.2-18.2s8.2-18.2,18.2-18.2c10,0,18.2,8.2,18.2,18.2
		S240.6,396.5,230.6,396.5z M372.6,368.1H267.8c-4.5-16.3-19.5-28.4-37.2-28.4c-17.7,0-32.7,12-37.2,28.4h-11.1V259.7
		c36.4-4.4,65.5-32.5,71.5-68.3h118.7V368.1z M441.1,396.5c-10,0-18.2-8.2-18.2-18.2s8.2-18.2,18.2-18.2s18.2,8.2,18.2,18.2
		S451.1,396.5,441.1,396.5z M478.3,368.1c-4.5-16.3-19.5-28.4-37.2-28.4c-17.7,0-32.7,12-37.2,28.4H393V243.5h44.8l53.8,61.4v63.2
		H478.3z"/>
	<path class="st0" d="M69.3,347.6h-5.4c-5.6,0-10.2,4.6-10.2,10.2S58.2,368,63.8,368h5.4c5.6,0,10.2-4.6,10.2-10.2
		S74.9,347.6,69.3,347.6z"/>
	<path class="st0" d="M23.1,215.4h40.7c5.6,0,10.2-4.6,10.2-10.2c0-5.6-4.6-10.2-10.2-10.2H23.1c-5.6,0-10.2,4.6-10.2,10.2
		C12.9,210.8,17.5,215.4,23.1,215.4z"/>
	<path class="st0" d="M129.7,280.4c0-5.6-4.6-10.2-10.2-10.2H10.2c-5.6,0-10.2,4.6-10.2,10.2s4.6,10.2,10.2,10.2h109.3
		C125.1,290.6,129.7,286.1,129.7,280.4z"/>
	<path class="st0" d="M182.6,173.5v-43.5c0-5.6-4.6-10.2-10.2-10.2s-10.2,4.6-10.2,10.2v47.7c0,2.7,1.1,5.3,3,7.2l17.5,17.5
		c2,2,4.6,3,7.2,3c2.6,0,5.2-1,7.2-3c4-4,4-10.4,0-14.4L182.6,173.5z"/>
</g>
</svg>
