<?xml version="1.0" encoding="utf-8"?>
<!-- Generator: Adobe Illustrator 19.2.1, SVG Export Plug-In . SVG Version: 6.00 Build 0)  -->
<svg version="1.1" id="Capa_1" xmlns="http://www.w3.org/2000/svg" xmlns:xlink="http://www.w3.org/1999/xlink" x="0px" y="0px"
	 viewBox="0 0 50 50" style="enable-background:new 0 0 50 50;" xml:space="preserve">
<style type="text/css">
	.st0{fill:#333333;}
</style>
<g>
	<path class="st0" d="M15.3,29.4h29.5L50,10.7h-7.7l-2.8-8.5L28.1,6l1.6,4.8h-0.5l-2.8-8.5L14.8,6l1.6,4.8h-6.1L8.9,5.6
		C8.3,3.1,6.1,1.3,3.5,1.3H0v2.1h3.5c1.6,0,3,1.1,3.4,2.7l5.6,22.1c-1.2,0.8-1.9,2.2-1.9,3.8c0,2.6,2.1,4.7,4.7,4.7H44v-2.1H15.3
		c-1.4,0-2.6-1.2-2.6-2.6C12.8,30.5,13.9,29.4,15.3,29.4z M38.2,4.9l1.9,5.7h-8.3l-1.2-3.3L38.2,4.9z M24.9,4.9l1.9,5.7h-8.3
		l-1.2-3.3L24.9,4.9z M10.7,12.8l36.5,0l-4,14.5H14.5L10.7,12.8z"/>
	<path class="st0" d="M34.7,39.8c-2.4,0-4.5,2-4.5,4.5s2,4.5,4.5,4.5c2.6,0,4.5-2,4.5-4.5C39.2,41.8,37.1,39.8,34.7,39.8z
		 M34.7,46.7c-1.4,0-2.4-1.2-2.4-2.4c0-1.4,1.2-2.4,2.4-2.4c1.4,0,2.4,1.1,2.4,2.4C37.1,45.6,36,46.7,34.7,46.7z"/>
	<path class="st0" d="M18.3,39.8c-2.4,0-4.5,2-4.5,4.5s2,4.5,4.5,4.5s4.5-2,4.5-4.5S20.7,39.8,18.3,39.8z M18.3,46.7
		c-1.4,0-2.4-1.2-2.4-2.4c0-1.4,1.2-2.4,2.4-2.4c1.3,0,2.4,1.1,2.4,2.4S19.6,46.7,18.3,46.7z"/>
</g>
</svg>
