<?xml version="1.0" encoding="utf-8"?>
<!-- Generator: Adobe Illustrator 19.2.1, SVG Export Plug-In . SVG Version: 6.00 Build 0)  -->
<svg version="1.1" id="Layer_1" xmlns="http://www.w3.org/2000/svg" xmlns:xlink="http://www.w3.org/1999/xlink" x="0px" y="0px"
	 viewBox="0 0 512 512" style="enable-background:new 0 0 512 512;" xml:space="preserve">
<style type="text/css">
	.st0{fill:#333333;}
</style>
<g>
	<g>
		<path class="st0" d="M0,23.4c0,11.9,9.8,21.7,21.7,21.7h53.2l74.9,274.4c3.2,7.6,11.9,14.1,21.7,14.1h251.7
			c8.8,0,17.4-5.4,20.6-14.1L511,114.4c4-12.3-4.5-28.2-20.6-28.2H225.6c-11.9,0-21.7,9.8-21.7,21.7s9.8,21.7,21.7,21.7h235.4
			l-53.2,161.6H186.7L111.9,16.8C109.7,7,101,1.6,91.2,1.6H21.8C9.8,1.6,0,11.5,0,23.4z"/>
		<path class="st0" d="M143.3,437.7c0,40.1,31.5,72.7,72.7,72.7c40.1,0,72.7-32.5,72.7-72.7s-32.5-72.7-72.7-72.7
			S143.3,397.6,143.3,437.7z M185.6,436.6c0-16.3,13-30.3,30.3-30.3s30.3,14.1,30.3,30.3s-14.1,30.3-30.3,30.3
			C198.6,466.9,185.6,452.9,185.6,436.6z"/>
		<path class="st0" d="M307.1,437.7c0,40.1,32.5,72.7,72.7,72.7s72.7-32.5,72.7-72.7s-32.5-72.7-72.7-72.7S307.1,397.6,307.1,437.7z
			 M349.4,436.6c0-16.3,14.1-30.3,30.3-30.3c17.3,0,30.3,14.1,30.3,30.3s-14.1,30.3-30.3,30.3C362.4,466.9,349.4,452.9,349.4,436.6z
			"/>
	</g>
</g>
</svg>
